<?xml version="1.0" encoding="UTF-8" standalone="no"?>
<!-- Created with Inkscape (http://www.inkscape.org/) -->

<svg
   width="213.44141mm"
   height="83.815086mm"
   viewBox="0 0 213.44141 83.815085"
   version="1.1"
   id="svg1"
   inkscape:version="1.3.2 (091e20e, 2023-11-25, custom)"
   sodipodi:docname="ERNLO_Word.svg"
   inkscape:export-filename="ERNLO_Word_Red_2.png"
   inkscape:export-xdpi="148.77982"
   inkscape:export-ydpi="148.77982"
   xml:space="preserve"
   xmlns:inkscape="http://www.inkscape.org/namespaces/inkscape"
   xmlns:sodipodi="http://sodipodi.sourceforge.net/DTD/sodipodi-0.dtd"
   xmlns:xlink="http://www.w3.org/1999/xlink"
   xmlns="http://www.w3.org/2000/svg"
   xmlns:svg="http://www.w3.org/2000/svg"><sodipodi:namedview
     id="namedview1"
     pagecolor="#505050"
     bordercolor="#eeeeee"
     borderopacity="1"
     inkscape:showpageshadow="0"
     inkscape:pageopacity="0"
     inkscape:pagecheckerboard="0"
     inkscape:deskcolor="#505050"
     inkscape:document-units="mm"
     inkscape:zoom="0.53039955"
     inkscape:cx="526.96123"
     inkscape:cy="62.217247"
     inkscape:window-width="1920"
     inkscape:window-height="1051"
     inkscape:window-x="-9"
     inkscape:window-y="-9"
     inkscape:window-maximized="1"
     inkscape:current-layer="layer3" /><defs
     id="defs1"><linearGradient
       id="linearGradient1"
       inkscape:collect="always"><stop
         style="stop-color:#800080;stop-opacity:1;"
         offset="0"
         id="stop1" /><stop
         style="stop-color:#8d0080;stop-opacity:1;"
         offset="0.16268487"
         id="stop4" /><stop
         style="stop-color:#c50f86;stop-opacity:1;"
         offset="0.50284415"
         id="stop3" /><stop
         style="stop-color:#920080;stop-opacity:1;"
         offset="0.7997725"
         id="stop5" /><stop
         style="stop-color:#780487;stop-opacity:1;"
         offset="1"
         id="stop2" /></linearGradient><marker
       style="overflow:visible"
       id="marker10"
       refX="0"
       refY="0"
       orient="auto"
       inkscape:stockid="Dot"
       markerWidth="0.5"
       markerHeight="0.5"
       viewBox="0 0 1 1"
       inkscape:isstock="true"
       inkscape:collect="always"
       preserveAspectRatio="xMidYMid"><path
         transform="scale(0.5)"
         style="fill:context-stroke;fill-rule:evenodd;stroke:none"
         d="M 5,0 C 5,2.76 2.76,5 0,5 -2.76,5 -5,2.76 -5,0 c 0,-2.76 2.3,-5 5,-5 2.76,0 5,2.24 5,5 z"
         sodipodi:nodetypes="sssss"
         id="path10" /></marker><marker
       style="overflow:visible"
       id="Dot"
       refX="0"
       refY="0"
       orient="auto"
       inkscape:stockid="Dot"
       markerWidth="0.50099999"
       markerHeight="0.50099999"
       viewBox="0 0 1 1"
       inkscape:isstock="true"
       inkscape:collect="always"
       preserveAspectRatio="xMidYMid"
       markerUnits="strokeWidth"><path
         transform="scale(0.5)"
         style="fill:context-stroke;fill-rule:evenodd;stroke:none"
         d="M 5,0 C 5,2.76 2.76,5 0,5 -2.76,5 -5,2.76 -5,0 c 0,-2.76 2.3,-5 5,-5 2.76,0 5,2.24 5,5 z"
         sodipodi:nodetypes="sssss"
         id="path17" /></marker><linearGradient
       inkscape:collect="always"
       xlink:href="#linearGradient1"
       id="linearGradient2"
       x1="-1.7465893"
       y1="104.89212"
       x2="210.69714"
       y2="189.19571"
       gradientUnits="userSpaceOnUse" /></defs><g
     inkscape:groupmode="layer"
     id="layer3"
     inkscape:label="Logo"
     transform="translate(2.2454271,-105.38579)"><path
       id="text1"
       style="font-style:normal;font-weight:normal;font-size:50.8px;line-height:1.25;font-family:sans-serif;letter-spacing:0px;word-spacing:0px;fill:url(#linearGradient2);fill-opacity:1;stroke:none;stroke-width:0.612347"
       d="m 190.70148,105.38579 c -13.85435,0 -20.78155,5.33908 -20.78155,16.01672 v 52.98721 c 0,9.87393 6.88892,14.81116 20.66673,14.81116 6.12347,0 11.07966,-1.28212 14.86856,-3.84632 3.82718,-2.60248 5.74076,-6.29571 5.74076,-11.07965 v -52.98722 c 0,-10.60108 -6.83167,-15.9019 -20.4945,-15.9019 z m -192.9469071,0.7463 v 82.32249 H 33.117646 V 177.89157 H 15.837962 v -28.93342 h 15.385232 v -9.9889 H 15.837962 V 116.7525 h 17.050053 v -10.62041 z m 38.5778991,0 v 82.32249 H 54.41586 v -39.49643 c 3.750609,0 5.625945,1.39692 5.625945,4.19075 0,0.15298 -0.05742,3.65497 -0.172213,10.5056 l -0.114817,4.93704 v 0.11479 c 0,10.90744 0.975949,17.52846 2.927787,19.86305 h 18.083391 c -2.258013,-1.76051 -3.387048,-9.22368 -3.387048,-22.38897 l 0.287039,-9.013 c 0,-7.30989 -3.750687,-11.84509 -11.251888,-13.60559 7.46293,-2.25803 11.194479,-6.58274 11.194479,-12.97412 v -9.87411 c 0,-5.0517 -1.894485,-8.74509 -5.683351,-11.07966 -3.750592,-2.33456 -8.17105,-3.50187 -13.261153,-3.50187 z m 46.901997,0 v 82.32249 h 15.098207 v -43.85941 l 12.285214,43.85941 h 18.60006 v -82.32249 h -15.09821 v 37.54457 l -10.33336,-37.54457 z m 50.116811,0 v 82.32249 h 33.92789 v -10.56301 h -15.84449 v -71.75948 z m 70.02412,6.45715 -9.41485,17.28447 -2.66825,-3.07847 z m -0.11248,0.0717 -14.20597,12.0831 -6.45716,-2.39796 z m -0.36956,0.36836 -11.71472,13.56016 -0.29303,2.76155 -1.73657,-4.60697 z m -146.884486,2.54029 a 4.572588,4.6535184 0 0 1 4.4754,3.75779 h 3.665714 l 2.081026,14.07445 v 1.65763 H 45.671921 v -1.74734 l 1.961427,-13.98474 h 3.89893 a 4.572588,4.6535184 0 0 1 4.476596,-3.75779 z m 0,1.41605 a 3.1809307,3.2372302 0 0 0 -3.046188,2.34174 h 6.101947 a 3.1809307,3.2372302 0 0 0 -3.055759,-2.34174 z M 189.936,165.39225 h 0.001 c 2.44931,0 4.43482,2.01236 4.43475,4.49454 -3.2e-4,1.13826 -0.42705,2.23335 -1.1936,3.06533 h 0.002 l -3.27462,9.58347 -3.20527,-9.58947 c -0.76707,-0.82963 -1.19725,-1.92239 -1.19956,-3.05933 -7e-5,-2.48218 1.98541,-4.49454 4.43473,-4.49454 z m 0,2.55943 c -1.05439,-9e-5 -1.90884,0.86655 -1.90882,1.93511 -2e-5,1.06855 0.85443,1.93401 1.90882,1.93392 1.05427,-9e-5 1.90881,-0.86551 1.90879,-1.93392 2e-5,-1.06842 -0.85452,-1.93499 -1.90879,-1.93511 z" /><path
       style="fill:none;fill-opacity:1;stroke:#ffffff;stroke-width:0.69663;stroke-linecap:butt;stroke-linejoin:miter;stroke-dasharray:2.78652, 0.69663;stroke-dashoffset:0;stroke-opacity:1;marker-start:url(#Dot);marker-end:url(#marker10)"
       d="m 188.39698,127.00612 c -2.64243,1.67052 -9.75037,5.07947 -9.79378,11.51101 0.072,9.66869 23.22167,2.4264 22.98739,11.98037 -0.093,6.91633 -11.38997,4.12599 -11.44167,13.28026"
       id="path9"
       sodipodi:nodetypes="cccc" /><circle
       id="path11"
       style="fill:#aa0000;stroke:#000000;stroke-width:0.612347"
       cx="183.60947"
       cy="143.45311"
       r="0.01534235" /></g></svg>
