<?xml version="1.0" encoding="UTF-8" standalone="no"?>
<!-- Created with Inkscape (http://www.inkscape.org/) -->

<svg
   width="92.223824mm"
   height="36.214851mm"
   viewBox="0 0 92.223824 36.214851"
   version="1.1"
   id="svg1"
   xml:space="preserve"
   xmlns="http://www.w3.org/2000/svg"
   xmlns:svg="http://www.w3.org/2000/svg"><defs
     id="defs1"><marker
       style="overflow:visible"
       id="marker10"
       refX="0"
       refY="0"
       orient="auto"
       markerWidth="0.5"
       markerHeight="0.5"
       viewBox="0 0 1 1"
       preserveAspectRatio="xMidYMid"><path
         transform="scale(0.5)"
         style="fill:context-stroke;fill-rule:evenodd;stroke:none"
         d="M 5,0 C 5,2.76 2.76,5 0,5 -2.76,5 -5,2.76 -5,0 c 0,-2.76 2.3,-5 5,-5 2.76,0 5,2.24 5,5 z"
         id="path10" /></marker><marker
       style="overflow:visible"
       id="Dot"
       refX="0"
       refY="0"
       orient="auto"
       markerWidth="0.50099999"
       markerHeight="0.50099999"
       viewBox="0 0 1 1"
       preserveAspectRatio="xMidYMid"
       markerUnits="strokeWidth"><path
         transform="scale(0.5)"
         style="fill:context-stroke;fill-rule:evenodd;stroke:none"
         d="M 5,0 C 5,2.76 2.76,5 0,5 -2.76,5 -5,2.76 -5,0 c 0,-2.76 2.3,-5 5,-5 2.76,0 5,2.24 5,5 z"
         id="path17" /></marker></defs><g
     id="layer3"
     transform="translate(-58.363363,-129.18591)"><path
       id="text1"
       style="font-style:normal;font-weight:normal;font-size:50.8px;line-height:1.25;font-family:sans-serif;letter-spacing:0px;word-spacing:0px;fill:#000000;fill-opacity:1;stroke:none;stroke-width:0.264583"
       d="m 141.73192,129.18591 c -5.98619,0 -8.9793,2.30691 -8.9793,6.92051 v 22.89473 c 0,4.26633 2.97657,6.39961 8.92969,6.39961 2.64583,0 4.7873,-0.55398 6.42441,-1.66192 1.65365,-1.12448 2.48047,-2.72025 2.48047,-4.7873 v -22.89473 c 0,-4.58052 -2.95183,-6.8709 -8.85527,-6.8709 z m -83.368557,0.32246 V 165.0783 H 73.64305 v -4.56407 h -7.466211 v -12.50156 h 6.647656 v -4.31601 h -6.647656 v -9.59942 h 7.366992 v -4.58887 z m 16.66875,0 v 35.56993 h 7.813476 v -17.06563 c 1.620564,0 2.43086,0.60358 2.43086,1.81074 0,0.0661 -0.02481,1.57924 -0.07441,4.53926 l -0.04961,2.1332 v 0.0496 c 0,4.71289 0.421688,7.5737 1.265039,8.58243 h 7.813477 c -0.975643,-0.76068 -1.463477,-3.98537 -1.463477,-9.67383 l 0.124024,-3.89434 c 0,-3.15846 -1.620598,-5.11803 -4.861719,-5.87871 3.224585,-0.97565 4.836914,-2.84427 4.836914,-5.60586 v -4.26641 c 0,-2.18274 -0.81857,-3.77858 -2.455664,-4.7873 -1.620557,-1.00872 -3.53055,-1.51309 -5.729883,-1.51309 z m 20.265429,0 v 35.56993 h 6.523638 v -18.95079 l 5.3082,18.95079 h 8.03672 v -35.56993 h -6.52364 v 16.22227 l -4.46484,-16.22227 z m 21.654488,0 v 35.56993 h 14.65957 v -4.56407 h -6.84609 v -31.00586 z m 30.25604,2.79001 -4.06797,7.46828 -1.1529,-1.33015 z m -0.0486,0.031 -6.13812,5.22087 -2.79001,-1.03611 z m -0.15968,0.15916 -5.0617,5.85908 -0.12661,1.19321 -0.75034,-1.99058 z m -63.465891,1.09761 a 1.9757252,2.0106936 0 0 1 1.933732,1.62367 h 1.583883 l 0.89917,6.08129 v 0.71623 h -8.883179 v -0.75499 l 0.847494,-6.04253 h 1.684651 a 1.9757252,2.0106936 0 0 1 1.934249,-1.62367 z m 0,0.61185 a 1.3744175,1.3987434 0 0 0 -1.316198,1.01182 h 2.636531 A 1.3744175,1.3987434 0 0 0 83.533899,134.198 Z m 57.867271,20.91552 h 5.1e-4 c 1.0583,0 1.9162,0.8695 1.91617,1.942 -1.4e-4,0.49182 -0.18452,0.96499 -0.51573,1.32447 h 0.001 l -1.4149,4.14083 -1.38493,-4.14342 c -0.33144,-0.35847 -0.51731,-0.83063 -0.51831,-1.32188 -3e-5,-1.0725 0.85786,-1.942 1.91616,-1.942 z m 0,1.10588 c -0.45558,-4e-5 -0.82477,0.37442 -0.82476,0.83612 -1e-5,0.4617 0.36918,0.83565 0.82476,0.83561 0.45553,-4e-5 0.82476,-0.37397 0.82475,-0.83561 1e-5,-0.46164 -0.36922,-0.83607 -0.82475,-0.83612 z" /><path
       style="fill:#000000;fill-opacity:1;stroke:#ffffff;stroke-width:0.301;stroke-linecap:butt;stroke-linejoin:miter;stroke-dasharray:1.204, 0.301;stroke-dashoffset:0;stroke-opacity:1;marker-start:url(#Dot);marker-end:url(#marker10)"
       d="m 140.73619,138.52763 c -1.14174,0.7218 -4.21294,2.19474 -4.2317,4.97368 0.0311,4.17765 10.03363,1.0484 9.9324,5.17648 -0.0402,2.98841 -4.92138,1.78276 -4.94372,5.73814"
       id="path9" /><circle
       id="path11"
       style="fill:#aa0000;stroke:#000000;stroke-width:0.264583"
       cx="138.6676"
       cy="145.63405"
       r="0.0066291271" /></g></svg>
